<svg width="621" height="153" xmlns="http://www.w3.org/2000/svg">
    <title>logo</title>
    <linearGradient id="gradient-horizontal">
        <stop offset="25%" stop-color="#a770ef" />
        <stop offset="48%" stop-color="#cf8bf3" />
        <stop offset="97%" stop-color="#fdb99b" />
    </linearGradient>
    <linearGradient id="gradient-vertical" x2="0" y2="1" gradientTransform="rotate(135)">
        <stop offset="0%" stop-color="#00c3ff" />
        <stop offset="50%" stop-color="#77e190" />
        <stop offset="100%" stop-color="#ffff1c" />
    </linearGradient>
    <g>
        <title>Layer 1</title>
        <g stroke="null"  id="SvgjsG1037">
            <path stroke="null" id="svg_1" fill="url(#gradient-horizontal)" d="m95.86337,150.58183l-43.47786,-62.14152l-17.17906,19.7241l0,42.41742l-35.20646,0l0,-148.46097l35.20646,0l0,60.869l50.68882,-60.869l41.99325,0l-54.50638,62.35361l61.71735,86.10736l-39.23611,0zm152.9148,-148.46097l34.14602,0l0,148.46097l-26.08671,0l-69.56457,-86.31945l0,86.31945l-34.14602,0l0,-148.46097l26.51089,0l69.14039,86.31945l0,-86.31945zm177.94108,148.46097l-10.39227,-24.6021l-69.77666,0l-10.39227,24.6021l-36.26689,0l65.95909,-148.46097l31.1768,0l65.95909,148.46097l-36.26689,0zm-68.29205,-52.38551l46.23499,0l-23.11749,-54.71847l-23.11749,54.71847zm261.07922,-27.57132c7.21096,50.47673 -25.23836,82.07771 -65.53491,82.07771c-42.62951,0 -77.1997,-31.1768 -77.1997,-76.35136s35.20646,-76.35136 77.1997,-76.35136c19.93619,0 37.32733,6.36261 50.26464,17.60323l-20.57245,23.11749c-7.42305,-5.09009 -17.39114,-8.69557 -27.57132,-8.69557c-26.08671,0 -43.68994,18.66366 -43.68994,44.3262s16.96697,44.3262 41.56907,44.3262c18.0274,0 29.69219,-5.51426 34.14602,-21.20871l-33.08559,0l0,-28.84385l64.47448,0z"/>
        </g>
    </g>
</svg>